<svg width="72" height="22" viewBox="0 0 72 22" fill="none" xmlns="http://www.w3.org/2000/svg" class="__web-inspector-hide-shortcut__"><path fill-rule="evenodd" clip-rule="evenodd" d="M29.7017 18.4333C24.6868 18.4333 26.8749 9.2921 31.4495 9.2921C36.2264 9.2921 34.7647 15.8288 31.8434 17.7926C31.4115 18.0832 30.383 18.4333 29.7017 18.4333ZM22.4021 14.9016C22.4021 22.1269 31.8355 22.5069 35.8446 18.719C36.8328 17.7853 37.1176 17.6135 37.972 16.1938C39.062 14.3824 39.4425 12.0353 38.4762 10.0873C37.4751 8.06889 35.2215 6.59125 32.6833 6.59125C29.5034 6.59125 27.7964 7.19108 25.4416 9.03903C23.8716 10.2709 22.4021 12.8343 22.4021 14.9016Z" fill="white"></path><path fill-rule="evenodd" clip-rule="evenodd" d="M39.469 18.2741V18.8974C39.469 20.8798 42.0552 21.0787 43.5813 21.0787C43.5813 20.352 43.7092 19.9031 43.8303 19.2527C44.0855 17.8821 45.0034 13.105 45.394 12.2105C46.0924 10.611 47.1781 9.54822 49.236 9.54822C53.1423 9.54822 51.9165 13.2248 51.4156 15.386C50.6708 18.6001 49.6766 21.0787 54.8908 21.0787C55.2318 19.5997 55.4986 17.9559 55.7903 16.4821C56.0747 15.0453 56.5568 13.1782 56.5959 11.7161C56.6857 8.34954 53.5922 6.9512 50.3669 6.9512C48.3859 6.9512 46.5667 7.00285 44.848 7.81561C40.998 9.63628 40.7145 12.501 39.921 16.0298C39.7778 16.667 39.469 17.6258 39.469 18.2741Z" fill="white"></path><path fill-rule="evenodd" clip-rule="evenodd" d="M0.400345 15.4691C0.400345 17.5287 0.91502 19.0375 2.35735 19.9323C4.34785 21.1675 6.94998 21.0787 9.34488 21.0787C11.175 21.0787 13.3503 19.8692 13.8705 18.3559C14.0842 17.7344 13.8443 17.9364 13.2612 17.9595C10.3275 18.0758 4.9241 18.7609 4.9241 15.1576C4.9241 12.8778 5.50532 10.7507 5.94472 8.60588C6.14925 7.6074 7.08307 3.24996 7.08307 2.58843C7.08307 0.340157 4.95 -0.00866699 3.17615 -0.00866699C3.17615 0.674582 2.99111 1.39432 2.87564 1.97305C2.2351 5.1843 0.400345 12.86 0.400345 15.4691Z" fill="white"></path><path fill-rule="evenodd" clip-rule="evenodd" d="M58.9003 11.1291C58.9003 11.7441 58.952 12.0306 59.2057 12.5866C60.229 14.8294 65.6861 15.4355 65.6861 16.8425C65.6861 18.3794 62.8693 18.744 60.7931 17.9427C59.3563 17.3882 58.6396 16.9241 57.4135 17.6254C56.9314 17.9012 56.9005 18.0498 56.5357 18.2968C57.3753 19.5638 59.3596 20.5829 60.8806 20.8667C63.324 21.3228 65.8043 21.0356 67.8786 19.7851C69.7827 18.6371 71.6191 16.2013 69.364 13.9575C68.8405 13.4367 68.18 13.1026 67.47 12.7549C67.0908 12.5692 66.7667 12.4822 66.3614 12.3167C65.9438 12.1461 65.662 12.0516 65.2447 11.8867C63.9708 11.383 63.3213 11.2378 63.3213 10.2981C63.3213 9.80583 64.1222 9.2594 64.8635 9.2594C67.6192 9.2594 67.8634 10.2981 69.3872 10.2981C70.4309 10.2981 70.9237 9.78458 71.5463 9.36316C70.9279 8.43027 70.3037 7.95606 69.2506 7.42387C64.9938 5.27235 58.9003 7.30701 58.9003 11.1291Z" fill="white"></path><path fill-rule="evenodd" clip-rule="evenodd" d="M14.4855 17.8814C14.4855 18.9696 14.5264 19.6064 15.4956 20.3928C16.8387 21.4823 20.5029 21.5914 21.3889 18.7275C21.4677 18.4727 21.4633 18.2302 21.5796 17.9852C21.0694 18.1052 20.8465 18.4007 20.1401 18.4007C18.5348 18.4007 19.2543 16.4449 19.6263 14.8689L20.7774 9.48781C20.8761 9.06296 20.9606 8.60261 21.0866 8.13807L21.4768 6.87015C16.0446 6.87015 16.258 9.53793 15.2643 14.0975C15.1089 14.8098 14.4855 17.3547 14.4855 17.8814Z" fill="white"></path><path fill-rule="evenodd" clip-rule="evenodd" d="M18.3925 5.70057C18.8159 5.70057 21.4343 6.20343 21.6824 6.32387C21.6695 5.7424 20.8693 3.93254 20.6543 2.99973C20.3108 3.23222 18.4829 5.35815 18.3925 5.70057Z" fill="white"></path></svg>